<?xml version="1.0" encoding="UTF-8"?>
<svg width="1200pt" height="1200pt" version="1.1" viewBox="0 0 1200 1200" xmlns="http://www.w3.org/2000/svg">
 <path d="m1074.8 257.9c-13.312 0-26.391 0.375-39.469 1.2188v607.31l-88.547-12.234c-14.391-1.9219-29.391-2.8594-44.625-2.8594-89.625 0-176.06 37.547-237 103.08l-1.2188 1.3125c-1.4531 1.4062-2.6719 2.7188-3.9844 4.1719l-24.703 27.938h-70.312s-23.766-26.625-23.859-26.766l-5.625-6-13.312-13.312v-0.23437c-59.859-57.609-140.63-90.234-224.29-90.234-15.375 0-30.375 0.9375-44.391 3l-88.781 11.859-0.09375-607.08c-13.078-0.84375-26.156-1.2188-39.469-1.2188h-30v681.84l33-3.375c9.6094-0.9375 24.938-3.2344 42.703-6 26.156-4.0781 62.156-9.4688 75.703-9.4688 127.69 0 209.29 50.297 299.53 124.55h107.77c90.234-74.297 171.84-124.55 299.53-124.55 13.547 0 49.547 5.3906 75.703 9.4688 17.766 2.7656 33.141 5.0625 42.703 6l33 3.375 0.046875-681.79z" fill="#007335"/>
 <path d="m297.84 805.55c103.45 0 202.08 43.078 272.16 118.45 0.14062 0 0.14062 0 0.14062 0.14062 2.0156 2.0156 4.0781 4.1719 5.8594 6.3281v-586.22c-16.219-27.469-36.141-53.062-59.391-76.219-73.078-73.219-170.39-113.53-273.94-113.53h-30v659.06l34.078-4.5469c16.875-2.3906 34.031-3.4688 51.094-3.4688z" fill="#007335"/>
 <path d="m902.16 805.55c17.062 0 34.219 1.0781 51.141 3.375l34.078 4.6875v-659.06h-30c-103.55 0-200.86 40.312-273.84 113.39-23.297 23.156-43.219 48.844-59.531 76.312v586.22c1.9219-2.1562 3.8438-4.3125 6-6.4688 70.078-75.375 168.71-118.45 272.16-118.45z" fill="#007335"/>
</svg>
